<svg width="288" height="160" viewBox="0 0 288 160" fill="none" xmlns="http://www.w3.org/2000/svg">
<rect width="288" height="160" rx="32" fill="#2B2B35"/>
<path d="M61.2856 46.6666C66.2881 46.6666 70.3901 50.481 71.0238 55.3754H77.6271C84.6306 55.3754 90.3334 61.1476 90.3334 68.2361C90.3334 68.2361 90.1333 71.237 90.0666 75.4158C90.0599 75.7466 89.8999 76.0707 89.6364 76.2665C88.0323 77.4513 86.5649 78.4302 86.4315 78.4977C80.8954 82.2107 74.4621 84.8234 67.6087 86.123C67.1618 86.2107 66.7216 85.9778 66.4948 85.5795C64.5739 82.2513 60.9854 80.0842 56.9834 80.0842C53.0081 80.0842 49.3863 82.2276 47.4086 85.5593C47.1785 85.9508 46.745 86.177 46.3014 86.0926C39.5047 84.7896 33.0715 82.1804 27.5687 78.5314L24.3671 76.3036C24.1003 76.1348 23.9335 75.831 23.9335 75.4935C23.8335 73.772 23.6667 68.2361 23.6667 68.2361C23.6667 61.1476 29.3696 55.3754 36.3731 55.3754H42.9431C43.5767 50.481 47.6788 46.6666 52.6813 46.6666H61.2856ZM61.2856 51.7299H52.6813C50.4468 51.7299 48.5459 53.2826 48.0123 55.3754H65.9546C65.421 53.2826 63.52 51.7299 61.2856 51.7299Z" fill="#2D91FF"/>
<path d="M89.9975 83.2478C89.9879 83.1387 89.9399 82.8525 89.6998 82.7175C89.533 82.6162 89.3329 82.6499 89.1995 82.7175L89.0661 82.785C82.3294 87.3081 74.2254 90.3124 65.7211 91.5613C64.5205 91.7301 63.3199 90.9537 62.9864 89.7385C62.2527 86.9706 59.8849 85.1478 57.0501 85.1478H56.9501L56.4243 85.169C53.8257 85.3794 51.7016 87.1436 51.0138 89.7385C50.6803 90.9537 49.4796 91.7301 48.279 91.5613C39.7748 90.3124 31.6707 87.3081 24.934 82.785C24.9007 82.7512 24.5672 82.5487 24.3004 82.7175C24.0002 82.8862 24.0002 83.2913 24.0002 83.2913L24.2337 100.506L24.2502 101.167C24.5893 107.948 30.1221 113.333 36.9067 113.333H77.0601L77.7126 113.317C84.4124 112.973 89.7331 107.373 89.7331 100.506L89.9999 83.2913L89.9975 83.2478Z" fill="white"/>
<path d="M54.5053 92.166C54.6728 90.9392 55.73 89.9749 56.9834 89.9749C58.3841 89.9749 59.4847 91.1225 59.4847 92.5065V96.8609L59.4622 97.2085C59.2992 98.4565 58.2674 99.3925 56.9834 99.3925C55.6161 99.3925 54.4822 98.2786 54.4822 96.8609V92.5065L54.5053 92.166Z" fill="#2A2A34"/>
<path d="M117.408 91L125.28 70.392H129.184L136.992 91H133.408L131.36 85.688H123.072L121.024 91H117.408ZM123.616 83H130.784L127.2 73.56L123.616 83ZM146.566 96.632C145.436 96.632 144.305 96.5573 143.174 96.408C142.044 96.28 141.084 96.0773 140.294 95.8V93.112C141.148 93.3893 142.129 93.6027 143.238 93.752C144.348 93.9013 145.404 93.976 146.406 93.976C147.942 93.976 149.062 93.8907 149.766 93.72C150.47 93.5493 150.822 93.1653 150.822 92.568C150.822 92.12 150.652 91.8 150.31 91.608C149.969 91.4373 149.318 91.352 148.358 91.352H144.262C141.51 91.352 140.134 90.3813 140.134 88.44C140.134 87.8213 140.316 87.2453 140.678 86.712C141.041 86.1787 141.617 85.7733 142.406 85.496C141.532 85.0693 140.881 84.4827 140.454 83.736C140.049 82.9893 139.846 82.0933 139.846 81.048C139.846 79.1067 140.422 77.6987 141.574 76.824C142.748 75.9493 144.497 75.512 146.822 75.512C147.313 75.512 147.825 75.5547 148.358 75.64C148.892 75.704 149.308 75.768 149.606 75.832H155.174L155.078 78.104H152.518C152.924 78.4453 153.222 78.872 153.414 79.384C153.606 79.896 153.702 80.4507 153.702 81.048C153.702 82.6693 153.212 83.9493 152.23 84.888C151.249 85.8053 149.766 86.264 147.782 86.264C147.441 86.264 147.121 86.2533 146.822 86.232C146.545 86.1893 146.236 86.1467 145.894 86.104C145.254 86.168 144.678 86.3387 144.166 86.616C143.654 86.8933 143.398 87.2667 143.398 87.736C143.398 88.056 143.526 88.2907 143.782 88.44C144.038 88.568 144.465 88.632 145.062 88.632H149.318C150.833 88.632 151.996 88.9627 152.806 89.624C153.638 90.264 154.054 91.2027 154.054 92.44C154.054 93.9333 153.404 95 152.102 95.64C150.822 96.3013 148.977 96.632 146.566 96.632ZM146.822 84.056C148.209 84.056 149.169 83.8213 149.702 83.352C150.257 82.8827 150.534 82.0827 150.534 80.952C150.534 79.8213 150.257 79 149.702 78.488C149.169 77.976 148.209 77.72 146.822 77.72C145.521 77.72 144.572 77.9653 143.974 78.456C143.377 78.9467 143.078 79.7787 143.078 80.952C143.078 82.04 143.356 82.8293 143.91 83.32C144.486 83.8107 145.457 84.056 146.822 84.056ZM158.609 72.664V69.784H162.417V72.664H158.609ZM158.897 91V78.488H156.593L156.913 75.832H162.385V91H158.897ZM170.23 91.32C168.992 91.32 168.054 91.0213 167.414 90.424C166.774 89.8053 166.454 88.792 166.454 87.384V69.432H169.942V87.064C169.942 87.6613 170.048 88.0667 170.262 88.28C170.475 88.4933 170.795 88.6 171.222 88.6C171.734 88.6 172.224 88.536 172.694 88.408V90.936C172.288 91.0853 171.894 91.1813 171.51 91.224C171.147 91.288 170.72 91.32 170.23 91.32ZM175.577 72.664V69.784H179.385V72.664H175.577ZM175.865 91V78.488H173.561L173.881 75.832H179.353V91H175.865ZM189.694 91.32C188.329 91.32 187.124 91.0853 186.078 90.616C185.033 90.1467 184.222 89.368 183.646 88.28C183.07 87.192 182.782 85.7307 182.782 83.896C182.782 82.0827 183.092 80.5573 183.71 79.32C184.329 78.0613 185.182 77.112 186.27 76.472C187.38 75.832 188.628 75.512 190.014 75.512C190.932 75.512 191.742 75.6187 192.446 75.832C193.172 76.0453 193.865 76.376 194.526 76.824V69.432H198.014V91H195.038L194.814 89.496C194.132 90.1147 193.385 90.5733 192.574 90.872C191.764 91.1707 190.804 91.32 189.694 91.32ZM190.622 88.696C192.18 88.696 193.481 88.1627 194.526 87.096V79.512C193.524 78.616 192.265 78.168 190.75 78.168C189.278 78.168 188.169 78.6587 187.422 79.64C186.676 80.6213 186.302 82.0507 186.302 83.928C186.302 85.7413 186.644 86.9893 187.326 87.672C188.03 88.3547 189.129 88.696 190.622 88.696ZM206.627 91.32C205.667 91.32 204.771 91.1493 203.939 90.808C203.128 90.4667 202.478 89.9547 201.987 89.272C201.496 88.568 201.251 87.704 201.251 86.68C201.251 85.2293 201.742 84.0667 202.723 83.192C203.726 82.296 205.262 81.848 207.331 81.848H212.195V81.176C212.195 80.4507 212.078 79.8747 211.843 79.448C211.63 79.0213 211.224 78.712 210.627 78.52C210.051 78.328 209.198 78.232 208.067 78.232C206.275 78.232 204.6 78.4987 203.043 79.032V76.44C203.726 76.1627 204.558 75.9387 205.539 75.768C206.52 75.5973 207.576 75.512 208.707 75.512C210.926 75.512 212.611 75.96 213.763 76.856C214.936 77.752 215.523 79.2133 215.523 81.24V91H212.547L212.323 89.464C211.704 90.0613 210.936 90.52 210.019 90.84C209.123 91.16 207.992 91.32 206.627 91.32ZM207.555 88.824C208.6 88.824 209.507 88.6533 210.275 88.312C211.064 87.9493 211.704 87.4693 212.195 86.872V84.216H207.395C206.371 84.216 205.624 84.4187 205.155 84.824C204.707 85.208 204.483 85.8053 204.483 86.616C204.483 87.4053 204.75 87.9707 205.283 88.312C205.816 88.6533 206.574 88.824 207.555 88.824ZM225.663 91.32C224.298 91.32 223.092 91.0853 222.047 90.616C221.002 90.1467 220.191 89.368 219.615 88.28C219.039 87.192 218.751 85.7307 218.751 83.896C218.751 82.0827 219.06 80.5573 219.679 79.32C220.298 78.0613 221.151 77.112 222.239 76.472C223.348 75.832 224.596 75.512 225.983 75.512C226.9 75.512 227.711 75.6187 228.415 75.832C229.14 76.0453 229.834 76.376 230.495 76.824V69.432H233.983V91H231.007L230.783 89.496C230.1 90.1147 229.354 90.5733 228.543 90.872C227.732 91.1707 226.772 91.32 225.663 91.32ZM226.591 88.696C228.148 88.696 229.45 88.1627 230.495 87.096V79.512C229.492 78.616 228.234 78.168 226.719 78.168C225.247 78.168 224.138 78.6587 223.391 79.64C222.644 80.6213 222.271 82.0507 222.271 83.928C222.271 85.7413 222.612 86.9893 223.295 87.672C223.999 88.3547 225.098 88.696 226.591 88.696ZM245.384 91.32C242.738 91.32 240.69 90.6693 239.24 89.368C237.789 88.0667 237.064 86.072 237.064 83.384C237.064 80.952 237.682 79.032 238.92 77.624C240.157 76.216 242.034 75.512 244.552 75.512C246.856 75.512 248.584 76.12 249.736 77.336C250.909 78.5307 251.496 80.0773 251.496 81.976V84.792H240.391C240.562 86.264 241.096 87.2773 241.992 87.832C242.888 88.3867 244.253 88.664 246.088 88.664C246.856 88.664 247.645 88.5893 248.456 88.44C249.266 88.2907 249.97 88.0987 250.568 87.864V90.424C249.885 90.7227 249.096 90.9467 248.2 91.096C247.325 91.2453 246.386 91.32 245.384 91.32ZM240.391 82.52H248.424V81.464C248.424 80.4187 248.136 79.608 247.56 79.032C246.984 78.4347 246.013 78.136 244.648 78.136C243.026 78.136 241.906 78.488 241.288 79.192C240.69 79.896 240.391 81.0053 240.391 82.52Z" fill="white"/>
</svg>
