<svg width="68" height="65" viewBox="0 0 68 65" fill="none" xmlns="http://www.w3.org/2000/svg">
<rect x="0.403322" y="0.141113" width="67.3684" height="64" rx="12" fill="#F7F8F9"/>
<path d="M40.4252 20.1411C45.2657 20.1411 48.1226 22.7872 48.1226 27.3168H42.1842V27.3631C39.4282 27.3631 37.194 29.4324 37.194 31.9851C37.194 34.5378 39.4282 36.6072 42.1842 36.6072H48.1226V37.0232C48.1226 41.495 45.2657 44.1411 40.4252 44.1411H27.7499C22.9094 44.1411 20.0525 41.495 20.0525 37.0232V27.2591C20.0525 22.7872 22.9094 20.1411 27.7499 20.1411H40.4252ZM47.0747 29.3043C47.6534 29.3043 48.1226 29.7389 48.1226 30.275V33.6491C48.1159 34.1825 47.6506 34.6134 47.0747 34.6197H42.2965C40.9013 34.6371 39.6812 33.7523 39.3647 32.4935C39.2062 31.7122 39.4287 30.9059 39.9725 30.2907C40.5164 29.6756 41.3259 29.3145 42.1842 29.3043H47.0747ZM42.8579 30.8643H42.3963C42.1129 30.8612 41.84 30.9633 41.6384 31.1478C41.4368 31.3324 41.3234 31.584 41.3234 31.8465C41.3234 32.3972 41.8018 32.8454 42.3963 32.8518H42.8579C43.4505 32.8518 43.9308 32.4068 43.9308 31.858C43.9308 31.3092 43.4505 30.8643 42.8579 30.8643ZM34.624 25.3294H26.702C26.1143 25.3293 25.6359 25.7672 25.6291 26.3116C25.6291 26.8623 26.1074 27.3105 26.702 27.3168H34.624C35.2165 27.3168 35.6969 26.8719 35.6969 26.3231C35.6969 25.7743 35.2165 25.3294 34.624 25.3294Z" fill="#2D91FF"/>
</svg>
