<svg width="69" height="65" viewBox="0 0 69 65" fill="none" xmlns="http://www.w3.org/2000/svg">
<rect x="0.788147" y="0.141113" width="67.3684" height="64" rx="12" fill="#F7F8F9"/>
<path d="M28.7457 34.1007C30.7246 34.1007 32.3106 35.6221 32.3106 37.5154V42.0607C32.3106 43.9407 30.7246 45.4741 28.7457 45.4741H24.0018C22.0369 45.4741 20.4369 43.9407 20.4369 42.0607V37.5154C20.4369 35.6221 22.0369 34.1007 24.0018 34.1007H28.7457ZM44.9423 34.1007C46.9072 34.1007 48.5072 35.6221 48.5072 37.5154V42.0607C48.5072 43.9407 46.9072 45.4741 44.9423 45.4741H40.1985C38.2195 45.4741 36.6336 43.9407 36.6336 42.0607V37.5154C36.6336 35.6221 38.2195 34.1007 40.1985 34.1007H44.9423ZM28.7457 18.8078C30.7246 18.8078 32.3106 20.3411 32.3106 22.2225V26.7678C32.3106 28.6611 30.7246 30.1811 28.7457 30.1811H24.0018C22.0369 30.1811 20.4369 28.6611 20.4369 26.7678V22.2225C20.4369 20.3411 22.0369 18.8078 24.0018 18.8078H28.7457ZM44.9423 18.8078C46.9072 18.8078 48.5072 20.3411 48.5072 22.2225V26.7678C48.5072 28.6611 46.9072 30.1811 44.9423 30.1811H40.1985C38.2195 30.1811 36.6336 28.6611 36.6336 26.7678V22.2225C36.6336 20.3411 38.2195 18.8078 40.1985 18.8078H44.9423Z" fill="#2D91FF"/>
</svg>
