<svg width="68" height="65" viewBox="0 0 68 65" fill="none" xmlns="http://www.w3.org/2000/svg">
<rect x="0.0186768" y="0.141113" width="67.3684" height="64" rx="12" fill="#F7F8F9"/>
<path d="M40.2506 18.8216C42.2696 18.7017 44.2605 19.3677 45.7608 20.673C47.1348 22.0982 47.8358 23.9896 47.7237 25.9209V38.3614C47.8498 40.2927 47.1348 42.1841 45.7748 43.6093C44.2746 44.9146 42.2696 45.5806 40.2506 45.4607H27.1553C25.1223 45.5806 23.1314 44.9146 21.6311 43.6093C20.2571 42.1841 19.5561 40.2927 19.6823 38.3614V25.9209C19.5561 23.9896 20.2571 22.0982 21.6311 20.673C23.1314 19.3677 25.1223 18.7017 27.1553 18.8216H40.2506ZM39.8861 24.9086C39.0168 24.0828 37.6147 24.0828 36.7454 24.9086L35.8061 25.8143C35.6659 25.9475 35.6659 26.174 35.8061 26.3072C35.8061 26.3072 35.8336 26.3332 35.8826 26.3794L36.2274 26.7052C36.4269 26.8938 36.6759 27.1293 36.926 27.3661L37.7738 28.1711C37.9507 28.34 38.0681 28.4531 38.0774 28.4649C38.2316 28.6248 38.3298 28.8379 38.3298 29.0776C38.3298 29.5571 37.9232 29.9567 37.4044 29.9567C37.1661 29.9567 36.9417 29.8635 36.7875 29.717L34.4461 27.5059C34.3339 27.3994 34.1376 27.3994 34.0254 27.5059L27.3376 33.8594C26.8749 34.2989 26.6085 34.885 26.5945 35.511L26.5103 38.6677C26.5103 38.8409 26.5664 39.0007 26.6926 39.1206C26.8188 39.2405 26.987 39.3071 27.1693 39.3071H30.4642C31.1372 39.3071 31.7821 39.054 32.2728 38.6011L41.7088 29.6104C42.564 28.7846 42.564 27.4527 41.7088 26.6402L39.8861 24.9086Z" fill="#2D91FF"/>
</svg>
